<svg width="46" height="54" viewBox="0 0 46 54" fill="none" xmlns="http://www.w3.org/2000/svg">
<path d="M45.104 48.5304L39.5111 42.972C41.033 40.7698 41.9259 38.1012 41.9259 35.2276C41.9259 34.0942 41.7867 32.9673 41.512 31.8783C41.409 31.4697 40.9941 31.2217 40.5857 31.3251C40.1772 31.4282 39.9295 31.8429 40.0326 32.2514C40.2765 33.2186 40.4002 34.22 40.4002 35.2276C40.4002 41.9164 34.9585 47.358 28.2698 47.358C21.581 47.358 16.1394 41.9164 16.1394 35.2276C16.1394 28.5389 21.581 23.0972 28.2698 23.0972C32.6205 23.0972 36.6622 25.4483 38.818 29.233C39.0266 29.5992 39.4925 29.7272 39.8585 29.5183C40.2246 29.3098 40.3524 28.8439 40.1438 28.4778C39.443 27.2474 38.5642 26.1527 37.552 25.2164V14.8577C37.5513 14.6569 37.4702 14.4603 37.3285 14.3182L24.2063 1.19598C24.0642 1.05428 23.8677 0.973104 23.6669 0.972595H1.28792C0.866588 0.972595 0.525004 1.31408 0.525004 1.73551V27.929C0.525004 28.3505 0.866588 28.692 1.28792 28.692C1.70926 28.692 2.05084 28.3505 2.05084 27.929V2.49843H22.9039V7.88972C22.9039 8.31116 23.2455 8.65264 23.6669 8.65264C24.0882 8.65264 24.4298 8.31116 24.4298 7.88972V3.5773L34.9472 14.0948H24.4297V11.3483C24.4297 10.9268 24.0881 10.5854 23.6668 10.5854C23.2454 10.5854 22.9038 10.9268 22.9038 11.3483V14.8577C22.9038 15.2791 23.2454 15.6206 23.6668 15.6206H36.026V23.9953C33.7791 22.4455 31.0822 21.5714 28.2697 21.5714C24.6552 21.5714 21.3647 22.9835 18.9194 25.2843H4.8481C4.42677 25.2843 4.08519 25.6257 4.08519 26.0472C4.08519 26.4686 4.42677 26.8101 4.8481 26.8101H17.5233C16.5094 28.1018 15.7228 29.5801 15.2246 31.1842H4.8481C4.42677 31.1842 4.08519 31.5256 4.08519 31.9471C4.08519 32.3685 4.42677 32.71 4.8481 32.71H14.847C14.6942 33.5263 14.6135 34.3677 14.6135 35.2276C14.6135 35.8573 14.6573 36.4768 14.7402 37.0841H4.8481C4.42677 37.0841 4.08519 37.4255 4.08519 37.847C4.08519 38.2684 4.42677 38.6099 4.8481 38.6099H15.0376C15.7612 41.439 17.3704 43.917 19.5514 45.7305H2.05074V31.3876C2.05074 30.9662 1.70915 30.6247 1.28782 30.6247C0.866486 30.6247 0.524902 30.9662 0.524902 31.3876V46.4934C0.524902 46.9148 0.866486 47.2563 1.28782 47.2563H21.8094C23.7339 48.2941 25.9341 48.8839 28.2697 48.8839C31.0536 48.8839 33.6452 48.0458 35.8067 46.6096L41.4083 52.2595C41.921 52.771 42.5938 53.0267 43.2664 53.0267C43.9386 53.0267 44.6105 52.7712 45.1214 52.2602C45.6201 51.7616 45.8928 51.0982 45.8894 50.3925C45.8861 49.6852 45.6059 49.0226 45.104 48.5304ZM37.0834 45.7302L38.598 44.2156L39.6802 45.2912L38.1577 46.8137L37.0834 45.7302ZM44.0426 51.1814C43.6145 51.6094 42.9162 51.6086 42.489 51.1824L39.232 47.8973L40.7625 46.3668L44.032 49.6161C44.2444 49.8245 44.3623 50.1028 44.3637 50.3998C44.3651 50.6953 44.2511 50.9728 44.0426 51.1814Z" fill="white"/>
<path d="M28.2698 25.2729C24.0521 25.2729 20.2778 27.9444 18.8777 31.9207C18.5043 32.9811 18.3149 34.0937 18.3149 35.2277C18.3149 40.7169 22.7807 45.1825 28.2697 45.1825C33.7587 45.1825 38.2245 40.7169 38.2245 35.2277C38.2245 29.7386 33.7589 25.2729 28.2698 25.2729ZM20.3169 32.4274C20.4566 32.0307 20.6252 31.6501 20.8179 31.2859H30.7366C31.1292 31.2859 31.4486 31.6054 31.4486 31.998C31.4486 32.3905 31.1292 32.71 30.7366 32.71H20.2242C20.2538 32.6154 20.284 32.521 20.3169 32.4274ZM28.2698 43.6566C25.4523 43.6566 22.955 42.2655 21.4237 40.1358H23.4126C23.8339 40.1358 24.1755 39.7943 24.1755 39.3728C24.1755 38.9514 23.8339 38.6099 23.4126 38.6099H20.5516C20.3513 38.1547 20.1907 37.6786 20.0729 37.1858H30.7366C31.1292 37.1858 31.4486 37.5053 31.4486 37.8979C31.4486 38.2904 31.1292 38.6099 30.7366 38.6099H26.8711C26.4498 38.6099 26.1082 38.9514 26.1082 39.3728C26.1082 39.7943 26.4498 40.1358 26.8711 40.1358H30.7366C31.9706 40.1358 32.9745 39.1319 32.9745 37.8979C32.9745 36.6639 31.9706 35.66 30.7366 35.66H19.8519C19.8446 35.5167 19.8409 35.3726 19.8409 35.2276C19.8409 34.8944 19.8614 34.5635 19.8998 34.2359H30.7366C31.9706 34.2359 32.9745 33.232 32.9745 31.998C32.9745 30.764 31.9706 29.7601 30.7366 29.7601H21.8561C23.4277 27.9212 25.7552 26.7987 28.2699 26.7987C32.9176 26.7987 36.6988 30.5799 36.6988 35.2276C36.6988 39.8753 32.9176 43.6566 28.2698 43.6566Z" fill="white"/>
<path d="M4.84812 20.9099H13.1894C13.6107 20.9099 13.9523 20.5684 13.9523 20.147C13.9523 19.7256 13.6107 19.3841 13.1894 19.3841H4.84812C4.42679 19.3841 4.08521 19.7256 4.08521 20.147C4.08521 20.5684 4.42679 20.9099 4.84812 20.9099Z" fill="white"/>
</svg>
