<svg width="35" height="30" viewBox="0 0 35 30" fill="none" xmlns="http://www.w3.org/2000/svg">
<path d="M31.983 0.588226H2.94848C1.48465 0.588226 0.293701 1.77918 0.293701 3.243V26.9007C0.293701 28.3646 1.48465 29.5555 2.94848 29.5555H31.983C33.4468 29.5555 34.6378 28.3646 34.6378 26.9007V3.243C34.6378 1.77918 33.4468 0.588226 31.983 0.588226ZM33.6296 26.9007C33.6296 27.8087 32.8909 28.5474 31.983 28.5474H2.94848C2.04054 28.5474 1.30184 27.8087 1.30184 26.9007V3.243C1.30184 2.33507 2.04054 1.59637 2.94848 1.59637H31.983C32.8909 1.59637 33.6296 2.33507 33.6296 3.243V26.9007Z" fill="white"/>
<path d="M7.24959 5.96552C6.37869 5.96552 5.67017 6.67404 5.67017 7.54494C5.67017 8.41584 6.37869 9.12436 7.24959 9.12436C8.12049 9.12436 8.82901 8.41584 8.82901 7.54494C8.82901 6.67404 8.12049 5.96552 7.24959 5.96552ZM7.24959 8.11622C6.93458 8.11622 6.67831 7.85995 6.67831 7.54494C6.67831 7.22993 6.93458 6.97366 7.24959 6.97366C7.5646 6.97366 7.82087 7.22993 7.82087 7.54494C7.82087 7.85995 7.5646 8.11622 7.24959 8.11622Z" fill="white"/>
<path d="M8.32501 3.81488H4.0236C3.74522 3.81488 3.51953 4.04057 3.51953 4.31895V8.62036C3.51953 8.89874 3.74522 9.12443 4.0236 9.12443C4.30198 9.12443 4.52767 8.89874 4.52767 8.62036V4.82302H8.32501C8.60339 4.82302 8.82908 4.59733 8.82908 4.31895C8.82908 4.04057 8.60339 3.81488 8.32501 3.81488Z" fill="white"/>
<path d="M30.9073 3.81488H26.6059C26.3275 3.81488 26.1018 4.04057 26.1018 4.31895C26.1018 4.59733 26.3275 4.82302 26.6059 4.82302H30.4032V8.62036C30.4032 8.89874 30.6289 9.12443 30.9073 9.12443C31.1857 9.12443 31.4114 8.89874 31.4114 8.62036V4.31895C31.4114 4.04057 31.1857 3.81488 30.9073 3.81488Z" fill="white"/>
<path d="M8.32501 25.3214H4.52767V21.5241C4.52767 21.2457 4.30198 21.02 4.0236 21.02C3.74522 21.02 3.51953 21.2457 3.51953 21.5241V25.8255C3.51953 26.1038 3.74522 26.3295 4.0236 26.3295H8.32501C8.60339 26.3295 8.82908 26.1038 8.82908 25.8255C8.82908 25.5471 8.60339 25.3214 8.32501 25.3214Z" fill="white"/>
<path d="M30.9073 21.02C30.6289 21.02 30.4032 21.2457 30.4032 21.5241V25.3214H26.6059C26.3275 25.3214 26.1018 25.5471 26.1018 25.8255C26.1018 26.1038 26.3275 26.3295 26.6059 26.3295H30.9073C31.1857 26.3295 31.4114 26.1038 31.4114 25.8255V21.5241C31.4114 21.2457 31.1857 21.02 30.9073 21.02Z" fill="white"/>
<path d="M10.4758 6.97366H15.8525C16.1309 6.97366 16.3566 6.74797 16.3566 6.46959C16.3566 6.1912 16.1309 5.96552 15.8525 5.96552H10.4758C10.1974 5.96552 9.97168 6.1912 9.97168 6.46959C9.97168 6.74797 10.1974 6.97366 10.4758 6.97366Z" fill="white"/>
<path d="M12.0888 8.11615H10.4758C10.1974 8.11615 9.97168 8.34184 9.97168 8.62022C9.97168 8.8986 10.1974 9.12429 10.4758 9.12429H12.0888C12.3672 9.12429 12.5928 8.8986 12.5928 8.62022C12.5928 8.34184 12.3672 8.11615 12.0888 8.11615Z" fill="white"/>
<path d="M28.7569 24.1788C29.0353 24.1788 29.261 23.9531 29.261 23.6747C29.261 23.3963 29.0353 23.1706 28.7569 23.1706H27.6816C27.4032 23.1706 27.1775 23.3963 27.1775 23.6747C27.1775 23.9531 27.4032 24.1788 27.6816 24.1788H28.7569Z" fill="white"/>
<path d="M25.5307 23.1706H22.3046C22.0262 23.1706 21.8005 23.3963 21.8005 23.6747C21.8005 23.9531 22.0262 24.1788 22.3046 24.1788H25.5307C25.809 24.1788 26.0347 23.9531 26.0347 23.6747C26.0347 23.3963 25.809 23.1706 25.5307 23.1706Z" fill="white"/>
<path d="M20.1543 14.5677H17.97V12.3833C17.97 12.105 17.7443 11.8793 17.4659 11.8793C17.1875 11.8793 16.9618 12.105 16.9618 12.3833V14.5677H14.7775C14.4991 14.5677 14.2734 14.7933 14.2734 15.0717C14.2734 15.3501 14.4991 15.5758 14.7775 15.5758H16.9618V17.7601C16.9618 18.0385 17.1875 18.2642 17.4659 18.2642C17.7443 18.2642 17.97 18.0385 17.97 17.7601V15.5758H20.1543C20.4326 15.5758 20.6583 15.3501 20.6583 15.0717C20.6583 14.7933 20.4326 14.5677 20.1543 14.5677Z" fill="white"/>
</svg>
