<svg width="34" height="27" viewBox="0 0 34 27" fill="none" xmlns="http://www.w3.org/2000/svg">
<path d="M31.4582 19.931C31.2382 19.7807 30.9382 19.8375 30.7882 20.0575L29.6804 21.681C29.3224 22.2056 29.1206 22.8184 29.0969 23.4532L28.9833 26.5004C28.9731 26.7723 29.1904 27.0005 29.4654 27.0005C29.7234 27.0005 29.9372 26.7962 29.9469 26.5362L30.0606 23.4892C30.0775 23.0362 30.2215 22.5988 30.477 22.2245L31.5848 20.601C31.7349 20.3811 31.6782 20.0811 31.4582 19.931Z" fill="white"/>
<path d="M31.4582 19.931C31.2382 19.7807 30.9382 19.8375 30.7882 20.0575L29.6804 21.681C29.3224 22.2056 29.1206 22.8184 29.0969 23.4532L28.9833 26.5004C28.9731 26.7723 29.1904 27.0005 29.4654 27.0005C29.7234 27.0005 29.9372 26.7962 29.9469 26.5362L30.0606 23.4892C30.0775 23.0362 30.2215 22.5988 30.477 22.2245L31.5848 20.601C31.7349 20.3811 31.6782 20.0811 31.4582 19.931Z" fill="white"/>
<path d="M32.395 14.8447L29.4868 10.3327V1.95058C29.4868 0.875096 28.6118 0 27.5363 0H5.68209C4.6066 0 3.73157 0.875032 3.73157 1.95058V5.65502C3.73157 5.92136 3.94745 6.13718 4.21373 6.13718C4.48002 6.13718 4.6959 5.92136 4.6959 5.65502V1.95058C4.6959 1.40676 5.13833 0.964329 5.68209 0.964329H27.5362C28.08 0.964329 28.5224 1.40676 28.5224 1.95058V16.5197C28.5224 16.656 28.4935 16.7888 28.4406 16.911L27.4599 15.8476V2.59347C27.4599 2.28109 27.2078 2.02689 26.8979 2.02689H23.6221C23.3557 2.02689 23.1399 2.24271 23.1399 2.50906C23.1399 2.7754 23.3557 2.99122 23.6221 2.99122H26.4956V14.8019L24.8863 13.0567C24.3315 12.455 23.4204 12.4268 22.8273 12.9333H15.1149C14.8486 12.9333 14.6327 13.1491 14.6327 13.4154C14.6327 13.6818 14.8486 13.8976 15.1149 13.8976H22.3159C22.2817 14.1977 22.3369 14.5087 22.4904 14.786L22.874 15.4791H10.3443L10.7279 14.7861C10.7736 14.7036 10.8097 14.6179 10.8384 14.5306L11.0009 14.6511C11.087 14.7148 11.1877 14.7459 11.2877 14.7459C11.4237 14.7459 11.5584 14.6885 11.6534 14.5782L13.1132 12.8817C13.2869 12.6798 13.2641 12.3754 13.0622 12.2017C12.8604 12.028 12.556 12.0509 12.3822 12.2528L11.2148 13.6095L10.6019 13.1555C10.5603 13.1017 10.5157 13.0497 10.466 13.0012C9.86747 12.4162 8.9023 12.4383 8.33206 13.0568L7.27323 14.2049V2.99115H21.6943C21.9606 2.99115 22.1764 2.77534 22.1764 2.50899C22.1764 2.24264 21.9606 2.02683 21.6943 2.02683H6.87091C6.56104 2.02683 6.3089 2.28102 6.3089 2.5934V15.2506L4.77774 16.911C4.72476 16.7888 4.6959 16.656 4.6959 16.5197V7.58284C4.6959 7.31649 4.48002 7.10067 4.21373 7.10067C3.94745 7.10067 3.73157 7.31649 3.73157 7.58284V10.3327L0.823283 14.8447C-0.096622 16.2719 -0.072578 18.1004 0.884486 19.5029L2.74127 22.224C2.99675 22.5983 3.14069 23.0357 3.15767 23.4886L3.27133 26.5358C3.28104 26.7961 3.4973 27.0081 3.77111 26.9997C4.0372 26.9898 4.24492 26.7659 4.23495 26.4999L4.12129 23.4527C4.09757 22.8179 3.89583 22.2051 3.53787 21.6805L1.68102 18.9593C0.942989 17.8778 0.924474 16.4677 1.63383 15.3672L3.73157 12.1127V16.5197C3.73157 16.9293 3.86098 17.3242 4.09461 17.6519L3.83398 17.9345C3.65346 18.1303 3.6658 18.4353 3.86156 18.6159C4.05738 18.7963 4.36237 18.784 4.54289 18.5882L9.04091 13.7104C9.23924 13.4954 9.5781 13.4819 9.79199 13.6908C9.96011 13.8551 9.99804 14.1134 9.88418 14.319L7.18007 19.2045C6.98084 19.5645 7.02109 20.0022 7.28249 20.3196C7.80824 20.9584 7.96542 21.8403 7.69271 22.6214C7.55841 23.0059 7.48551 23.4075 7.47599 23.8147L7.42405 26.0492C7.41781 26.3185 7.63408 26.5426 7.90628 26.5426C8.16735 26.5426 8.38201 26.334 8.38812 26.0717L8.44007 23.8372C8.4472 23.5307 8.50204 23.2286 8.6031 22.9393C8.98613 21.8424 8.76537 20.6038 8.02701 19.7067C8.01891 19.6969 8.01763 19.6827 8.02386 19.6715L8.6888 18.4702H24.5296L25.1945 19.6716C25.2007 19.6828 25.1994 19.6969 25.1912 19.7068C24.4529 20.6038 24.2322 21.8424 24.6152 22.9393C24.7162 23.2286 24.7711 23.5306 24.7782 23.8372L24.8302 26.0717C24.8362 26.3316 25.049 26.5469 25.3235 26.5424C25.5897 26.5362 25.8005 26.3154 25.7943 26.0492L25.7422 23.8147C25.7328 23.4073 25.6599 23.0058 25.5256 22.6214C25.2529 21.8404 25.41 20.9584 25.9358 20.3196C26.1972 20.0021 26.2373 19.5644 26.0382 19.2045L23.3341 14.3189C23.2203 14.1134 23.2582 13.8551 23.4263 13.6908C23.641 13.4811 23.9801 13.4964 24.1774 13.7103L28.6755 18.5881C28.8561 18.7839 29.1611 18.7962 29.3568 18.6158C29.5526 18.4353 29.5649 18.1302 29.3845 17.9345L29.1238 17.6518C29.3575 17.3242 29.4868 16.9292 29.4868 16.5197V12.1126L31.5845 15.3672C32.1946 16.3137 32.2737 17.4873 31.796 18.5062C31.683 18.7474 31.7868 19.0345 32.0279 19.1475C32.268 19.26 32.5556 19.1578 32.6691 18.9156C33.2886 17.594 33.1862 16.0721 32.395 14.8447ZM9.22252 17.5058L9.81057 16.4434H23.4078L23.9958 17.5058H9.22252Z" fill="white"/>
<path d="M32.395 14.8447L29.4868 10.3327V1.95058C29.4868 0.875096 28.6118 0 27.5363 0H5.68209C4.6066 0 3.73157 0.875032 3.73157 1.95058V5.65502C3.73157 5.92136 3.94745 6.13718 4.21373 6.13718C4.48002 6.13718 4.6959 5.92136 4.6959 5.65502V1.95058C4.6959 1.40676 5.13833 0.964329 5.68209 0.964329H27.5362C28.08 0.964329 28.5224 1.40676 28.5224 1.95058V16.5197C28.5224 16.656 28.4935 16.7888 28.4406 16.911L27.4599 15.8476V2.59347C27.4599 2.28109 27.2078 2.02689 26.8979 2.02689H23.6221C23.3557 2.02689 23.1399 2.24271 23.1399 2.50906C23.1399 2.7754 23.3557 2.99122 23.6221 2.99122H26.4956V14.8019L24.8863 13.0567C24.3315 12.455 23.4204 12.4268 22.8273 12.9333H15.1149C14.8486 12.9333 14.6327 13.1491 14.6327 13.4154C14.6327 13.6818 14.8486 13.8976 15.1149 13.8976H22.3159C22.2817 14.1977 22.3369 14.5087 22.4904 14.786L22.874 15.4791H10.3443L10.7279 14.7861C10.7736 14.7036 10.8097 14.6179 10.8384 14.5306L11.0009 14.6511C11.087 14.7148 11.1877 14.7459 11.2877 14.7459C11.4237 14.7459 11.5584 14.6885 11.6534 14.5782L13.1132 12.8817C13.2869 12.6798 13.2641 12.3754 13.0622 12.2017C12.8604 12.028 12.556 12.0509 12.3822 12.2528L11.2148 13.6095L10.6019 13.1555C10.5603 13.1017 10.5157 13.0497 10.466 13.0012C9.86747 12.4162 8.9023 12.4383 8.33206 13.0568L7.27323 14.2049V2.99115H21.6943C21.9606 2.99115 22.1764 2.77534 22.1764 2.50899C22.1764 2.24264 21.9606 2.02683 21.6943 2.02683H6.87091C6.56104 2.02683 6.3089 2.28102 6.3089 2.5934V15.2506L4.77774 16.911C4.72476 16.7888 4.6959 16.656 4.6959 16.5197V7.58284C4.6959 7.31649 4.48002 7.10067 4.21373 7.10067C3.94745 7.10067 3.73157 7.31649 3.73157 7.58284V10.3327L0.823283 14.8447C-0.096622 16.2719 -0.072578 18.1004 0.884486 19.5029L2.74127 22.224C2.99675 22.5983 3.14069 23.0357 3.15767 23.4886L3.27133 26.5358C3.28104 26.7961 3.4973 27.0081 3.77111 26.9997C4.0372 26.9898 4.24492 26.7659 4.23495 26.4999L4.12129 23.4527C4.09757 22.8179 3.89583 22.2051 3.53787 21.6805L1.68102 18.9593C0.942989 17.8778 0.924474 16.4677 1.63383 15.3672L3.73157 12.1127V16.5197C3.73157 16.9293 3.86098 17.3242 4.09461 17.6519L3.83398 17.9345C3.65346 18.1303 3.6658 18.4353 3.86156 18.6159C4.05738 18.7963 4.36237 18.784 4.54289 18.5882L9.04091 13.7104C9.23924 13.4954 9.5781 13.4819 9.79199 13.6908C9.96011 13.8551 9.99804 14.1134 9.88418 14.319L7.18007 19.2045C6.98084 19.5645 7.02109 20.0022 7.28249 20.3196C7.80824 20.9584 7.96542 21.8403 7.69271 22.6214C7.55841 23.0059 7.48551 23.4075 7.47599 23.8147L7.42405 26.0492C7.41781 26.3185 7.63408 26.5426 7.90628 26.5426C8.16735 26.5426 8.38201 26.334 8.38812 26.0717L8.44007 23.8372C8.4472 23.5307 8.50204 23.2286 8.6031 22.9393C8.98613 21.8424 8.76537 20.6038 8.02701 19.7067C8.01891 19.6969 8.01763 19.6827 8.02386 19.6715L8.6888 18.4702H24.5296L25.1945 19.6716C25.2007 19.6828 25.1994 19.6969 25.1912 19.7068C24.4529 20.6038 24.2322 21.8424 24.6152 22.9393C24.7162 23.2286 24.7711 23.5306 24.7782 23.8372L24.8302 26.0717C24.8362 26.3316 25.049 26.5469 25.3235 26.5424C25.5897 26.5362 25.8005 26.3154 25.7943 26.0492L25.7422 23.8147C25.7328 23.4073 25.6599 23.0058 25.5256 22.6214C25.2529 21.8404 25.41 20.9584 25.9358 20.3196C26.1972 20.0021 26.2373 19.5644 26.0382 19.2045L23.3341 14.3189C23.2203 14.1134 23.2582 13.8551 23.4263 13.6908C23.641 13.4811 23.9801 13.4964 24.1774 13.7103L28.6755 18.5881C28.8561 18.7839 29.1611 18.7962 29.3568 18.6158C29.5526 18.4353 29.5649 18.1302 29.3845 17.9345L29.1238 17.6518C29.3575 17.3242 29.4868 16.9292 29.4868 16.5197V12.1126L31.5845 15.3672C32.1946 16.3137 32.2737 17.4873 31.796 18.5062C31.683 18.7474 31.7868 19.0345 32.0279 19.1475C32.268 19.26 32.5556 19.1578 32.6691 18.9156C33.2886 17.594 33.1862 16.0721 32.395 14.8447ZM9.22252 17.5058L9.81057 16.4434H23.4078L23.9958 17.5058H9.22252Z" fill="white"/>
<path d="M5.99704 9.5834V8.88703C5.99704 8.62068 5.78116 8.40486 5.51488 8.40486C5.2486 8.40486 5.03271 8.62068 5.03271 8.88703V9.5834C5.03271 9.84975 5.2486 10.0656 5.51488 10.0656C5.78116 10.0656 5.99704 9.84975 5.99704 9.5834Z" fill="white"/>
<path d="M5.99704 9.5834V8.88703C5.99704 8.62068 5.78116 8.40486 5.51488 8.40486C5.2486 8.40486 5.03271 8.62068 5.03271 8.88703V9.5834C5.03271 9.84975 5.2486 10.0656 5.51488 10.0656C5.78116 10.0656 5.99704 9.84975 5.99704 9.5834Z" fill="white"/>
<path d="M13.0622 4.53758C12.8604 4.36387 12.556 4.38676 12.3823 4.58863L11.2148 5.94537L10.5097 5.42316C10.2958 5.26462 9.99368 5.30956 9.83521 5.52358C9.67674 5.73753 9.72168 6.03949 9.93569 6.19796L11.001 6.98698C11.087 7.05069 11.1876 7.08174 11.2877 7.08174C11.4237 7.08174 11.5585 7.02439 11.6534 6.91407L13.1132 5.21756C13.2869 5.0157 13.2641 4.71129 13.0622 4.53758Z" fill="white"/>
<path d="M13.0622 4.53758C12.8604 4.36387 12.556 4.38676 12.3823 4.58863L11.2148 5.94537L10.5097 5.42316C10.2958 5.26462 9.99368 5.30956 9.83521 5.52358C9.67674 5.73753 9.72168 6.03949 9.93569 6.19796L11.001 6.98698C11.087 7.05069 11.1876 7.08174 11.2877 7.08174C11.4237 7.08174 11.5585 7.02439 11.6534 6.91407L13.1132 5.21756C13.2869 5.0157 13.2641 4.71129 13.0622 4.53758Z" fill="white"/>
<path d="M24.1892 5.26842H15.115C14.8487 5.26842 14.6328 5.48424 14.6328 5.75059C14.6328 6.01693 14.8487 6.23275 15.115 6.23275H24.1892C24.4555 6.23275 24.6713 6.01693 24.6713 5.75059C24.6713 5.48424 24.4555 5.26842 24.1892 5.26842Z" fill="white"/>
<path d="M24.1892 5.26842H15.115C14.8487 5.26842 14.6328 5.48424 14.6328 5.75059C14.6328 6.01693 14.8487 6.23275 15.115 6.23275H24.1892C24.4555 6.23275 24.6713 6.01693 24.6713 5.75059C24.6713 5.48424 24.4555 5.26842 24.1892 5.26842Z" fill="white"/>
<path d="M24.1892 9.10171H15.115C14.8487 9.10171 14.6328 9.31753 14.6328 9.58388C14.6328 9.85022 14.8487 10.066 15.115 10.066H24.1892C24.4555 10.066 24.6713 9.85022 24.6713 9.58388C24.6713 9.31753 24.4555 9.10171 24.1892 9.10171Z" fill="white"/>
<path d="M24.1892 9.10171H15.115C14.8487 9.10171 14.6328 9.31753 14.6328 9.58388C14.6328 9.85022 14.8487 10.066 15.115 10.066H24.1892C24.4555 10.066 24.6713 9.85022 24.6713 9.58388C24.6713 9.31753 24.4555 9.10171 24.1892 9.10171Z" fill="white"/>
<path d="M12.5665 8.38911C12.3782 8.20087 12.0729 8.20081 11.8847 8.38918L11.3725 8.9013L10.8604 8.38918C10.6721 8.20087 10.3668 8.20081 10.1786 8.38911C9.99028 8.57741 9.99028 8.88272 10.1786 9.07096L10.6907 9.58314L10.1786 10.0953C9.99028 10.2836 9.99028 10.5889 10.1786 10.7772C10.2727 10.8713 10.3961 10.9184 10.5195 10.9184C10.6429 10.9184 10.7663 10.8713 10.8604 10.7771L11.3725 10.265L11.8847 10.7771C11.9788 10.8713 12.1022 10.9184 12.2256 10.9184C12.349 10.9184 12.4724 10.8713 12.5665 10.7772C12.7548 10.5889 12.7548 10.2836 12.5665 10.0953L12.0544 9.58314L12.5665 9.07096C12.7548 8.88272 12.7548 8.57741 12.5665 8.38911Z" fill="white"/>
<path d="M12.5665 8.38911C12.3782 8.20087 12.0729 8.20081 11.8847 8.38918L11.3725 8.9013L10.8604 8.38918C10.6721 8.20087 10.3668 8.20081 10.1786 8.38911C9.99028 8.57741 9.99028 8.88272 10.1786 9.07096L10.6907 9.58314L10.1786 10.0953C9.99028 10.2836 9.99028 10.5889 10.1786 10.7772C10.2727 10.8713 10.3961 10.9184 10.5195 10.9184C10.6429 10.9184 10.7663 10.8713 10.8604 10.7771L11.3725 10.265L11.8847 10.7771C11.9788 10.8713 12.1022 10.9184 12.2256 10.9184C12.349 10.9184 12.4724 10.8713 12.5665 10.7772C12.7548 10.5889 12.7548 10.2836 12.5665 10.0953L12.0544 9.58314L12.5665 9.07096C12.7548 8.88272 12.7548 8.57741 12.5665 8.38911Z" fill="white"/>
</svg>
