<svg width="34" height="37" viewBox="0 0 34 37" fill="none" xmlns="http://www.w3.org/2000/svg">
<path d="M31.3021 0H9.77845C8.54673 0 7.54459 1.00214 7.54459 2.23387V7.23287C3.46155 8.40136 0.464355 12.1677 0.464355 16.6209C0.464355 21.0742 3.46148 24.8405 7.54459 26.009V34.6099C7.54459 35.8416 8.54673 36.8438 9.77845 36.8438H27.3674C27.5761 36.8438 27.7762 36.7609 27.9238 36.6133L33.3055 31.2316C33.453 31.084 33.5359 30.8839 33.5359 30.6752V2.23387C33.5359 1.00214 32.5338 0 31.3021 0ZM9.77845 1.57357H31.3021C31.6661 1.57357 31.9623 1.86977 31.9623 2.23387V4.60838H9.11816V2.23387C9.11816 1.86977 9.41436 1.57357 9.77845 1.57357ZM2.03792 16.6209C2.03792 12.1052 5.71161 8.43155 10.2272 8.43155C14.7428 8.43155 18.4165 12.1052 18.4165 16.6209C18.4165 21.1365 14.7428 24.8102 10.2272 24.8102C5.71161 24.8102 2.03792 21.1365 2.03792 16.6209ZM9.11816 34.6098V26.3204C9.48232 26.3618 9.85226 26.3838 10.2273 26.3838C13.1598 26.3838 15.7941 25.084 17.5852 23.0304H22.406C22.8406 23.0304 23.1928 22.6782 23.1928 22.2437C23.1928 21.8091 22.8406 21.4569 22.406 21.4569H18.7058C19.3902 20.2617 19.8286 18.9088 19.953 17.4674H22.406C22.8405 17.4674 23.1927 17.1151 23.1927 16.6806C23.1927 16.246 22.8405 15.8938 22.406 15.8938H19.963C19.8566 14.4555 19.4369 13.1032 18.7726 11.9043H22.4059C22.8404 11.9043 23.1927 11.5521 23.1927 11.1176C23.1927 10.683 22.8404 10.3308 22.4059 10.3308H17.6871C15.8949 8.20848 13.216 6.85791 10.2271 6.85791C9.85204 6.85791 9.4821 6.87994 9.11793 6.9213V6.18195H31.9621V29.8883H28.8143C27.5825 29.8883 26.5805 30.8904 26.5805 32.1221V35.27H9.77845C9.41436 35.27 9.11816 34.9739 9.11816 34.6098ZM28.1543 34.1573V32.1221C28.1543 31.7581 28.4505 31.4619 28.8145 31.4619H30.8497L28.1543 34.1573Z" fill="white"/>
<path d="M25.4975 11.9041H28.1103C28.5449 11.9041 28.8971 11.5519 28.8971 11.1173C28.8971 10.6828 28.5449 10.3305 28.1103 10.3305H25.4975C25.0629 10.3305 24.7107 10.6828 24.7107 11.1173C24.7107 11.5519 25.0629 11.9041 25.4975 11.9041Z" fill="white"/>
<path d="M25.4975 17.4672H28.1103C28.5449 17.4672 28.8971 17.1149 28.8971 16.6804C28.8971 16.2459 28.5449 15.8936 28.1103 15.8936H25.4975C25.0629 15.8936 24.7107 16.2459 24.7107 16.6804C24.7107 17.1149 25.0629 17.4672 25.4975 17.4672Z" fill="white"/>
<path d="M25.4975 23.0302H28.1103C28.5449 23.0302 28.8971 22.678 28.8971 22.2434C28.8971 21.8089 28.5449 21.4567 28.1103 21.4567H25.4975C25.0629 21.4567 24.7107 21.8089 24.7107 22.2434C24.7107 22.678 25.0629 23.0302 25.4975 23.0302Z" fill="white"/>
<path d="M28.1106 28.5933C28.5451 28.5933 28.8974 28.241 28.8974 27.8065C28.8974 27.372 28.5451 27.0197 28.1106 27.0197H20.7504C20.3159 27.0197 19.9636 27.372 19.9636 27.8065C19.9636 28.241 20.3159 28.5933 20.7504 28.5933H28.1106Z" fill="white"/>
<path d="M16.3358 12.6521L15.3759 11.6922C15.1174 11.4337 14.7738 11.2914 14.4082 11.2914C14.0426 11.2914 13.699 11.4337 13.4404 11.6922L8.40578 16.7268L7.01407 15.3351C6.75563 15.0768 6.41192 14.9344 6.0464 14.9344C5.68089 14.9344 5.33717 15.0768 5.07873 15.3352L4.11863 16.2952C3.58512 16.8288 3.58512 17.6971 4.11871 18.2307L7.43796 21.5498C7.69648 21.8084 8.04019 21.9508 8.40578 21.9508H8.40586C8.77137 21.9508 9.11509 21.8084 9.37345 21.55L16.3359 14.5875C16.8694 14.054 16.8694 13.1856 16.3358 12.6521ZM8.40571 20.2923L5.37629 17.2629L6.04633 16.5929L7.84934 18.3959C8.15663 18.7032 8.65478 18.7032 8.96208 18.3959L14.4082 12.9498L15.0782 13.6198L8.40571 20.2923Z" fill="white"/>
</svg>
