<svg width="52" height="40" viewBox="0 0 52 40" fill="none" xmlns="http://www.w3.org/2000/svg">
<path fill-rule="evenodd" clip-rule="evenodd" d="M3.31969 39.7308C3.31969 39.7308 0.0769043 39.7308 0.0769043 36.4423C0.0769043 33.1538 3.31969 23.2885 19.5336 23.2885C35.7476 23.2885 38.9904 33.1538 38.9904 36.4423C38.9904 39.7308 35.7476 39.7308 35.7476 39.7308H3.31969ZM19.5336 20C22.1138 20 24.5882 18.9606 26.4126 17.1105C28.2371 15.2604 29.262 12.7511 29.262 10.1346C29.262 7.51815 28.2371 5.00885 26.4126 3.15873C24.5882 1.30861 22.1138 0.269226 19.5336 0.269226C16.9535 0.269226 14.4791 1.30861 12.6546 3.15873C10.8302 5.00885 9.80527 7.51815 9.80527 10.1346C9.80527 12.7511 10.8302 15.2604 12.6546 17.1105C14.4791 18.9606 16.9535 20 19.5336 20ZM51.4881 10.6147C51.6391 10.7675 51.7589 10.9489 51.8406 11.1487C51.9223 11.3484 51.9644 11.5626 51.9644 11.7788C51.9644 11.9951 51.9223 12.2093 51.8406 12.409C51.7589 12.6088 51.6391 12.7902 51.4881 12.943L41.7597 22.8083C41.6091 22.9615 41.4302 23.0829 41.2332 23.1658C41.0362 23.2487 40.825 23.2914 40.6118 23.2914C40.3985 23.2914 40.1873 23.2487 39.9903 23.1658C39.7934 23.0829 39.6144 22.9615 39.4638 22.8083L34.5996 17.8757C34.2952 17.5669 34.1241 17.1482 34.1241 16.7115C34.1241 16.2749 34.2952 15.8562 34.5996 15.5474C34.9041 15.2387 35.317 15.0652 35.7476 15.0652C36.1781 15.0652 36.5911 15.2387 36.8955 15.5474L40.6118 19.3193L49.1922 10.6147C49.3428 10.4616 49.5217 10.3401 49.7187 10.2572C49.9157 10.1743 50.1269 10.1317 50.3401 10.1317C50.5534 10.1317 50.7646 10.1743 50.9616 10.2572C51.1585 10.3401 51.3375 10.4616 51.4881 10.6147Z" fill="white"/>
</svg>
