<svg width="51" height="51" viewBox="0 0 51 51" fill="none" xmlns="http://www.w3.org/2000/svg">
<g clip-path="url(#clip0)">
<path d="M45.1264 35.9912C44.8467 35.8753 44.5248 35.9393 44.3106 36.1534L36.1301 44.3339C35.9161 44.5481 35.852 44.87 35.9679 45.1497C36.0837 45.4295 36.3568 45.6118 36.6595 45.6118H44.8401C45.2535 45.6118 45.5886 45.2767 45.5886 44.8633V36.6827C45.5885 36.38 45.4062 36.1071 45.1264 35.9912ZM38.4665 44.1148L44.0913 38.4899V44.1148H38.4665Z" fill="white"/>
<path d="M50.538 23.9926C50.2583 23.8766 49.9364 23.9407 49.7222 24.1548L47.4803 26.3967V11.1533C47.4803 10.7398 47.1451 10.4047 46.7317 10.4047H40.9802L43.068 8.31693C43.0683 8.31663 43.0686 8.31624 43.0689 8.31594L45.0806 6.30422C45.5116 5.87321 45.749 5.29986 45.749 4.69025C45.749 4.08064 45.5116 3.50748 45.0806 3.07627L42.7543 0.749992C42.3233 0.318981 41.75 0.0816116 41.1403 0.0816116C40.5307 0.0816116 39.9575 0.318981 39.5264 0.749992L37.5137 2.7627L35.0816 5.19477L29.8717 10.4047H6.63599V2.99918C6.63599 2.5857 6.3008 2.25061 5.88742 2.25061C2.64115 2.25081 0 4.89176 0 8.13823V39.9322C0 39.9875 0.00637501 40.0413 0.0177305 40.0931C0.121125 41.4706 0.717089 42.7505 1.71309 43.7221C2.77771 44.7604 4.1831 45.3322 5.67047 45.3322H28.5446L24.2366 49.6403C24.0225 49.8544 23.9585 50.1763 24.0743 50.4561C24.1902 50.7358 24.4632 50.9182 24.7659 50.9182H50.2515C50.6649 50.9182 51.0001 50.5831 51.0001 50.1696V24.6842C51.0001 24.3815 50.8176 24.1084 50.538 23.9926ZM40.5852 1.80874C40.8912 1.50254 41.3898 1.50254 41.6958 1.80874L44.0222 4.13512C44.3284 4.44122 44.3284 4.93957 44.0222 5.24577L42.5389 6.72916L39.1017 3.29213L40.5852 1.80874ZM38.0431 4.35078L41.4801 7.78771L40.1066 9.16122L36.6698 5.72429L38.0431 4.35078ZM49.5032 33.0954H48.1221C47.7086 33.0954 47.3735 33.4305 47.3735 33.844C47.3735 34.2575 47.7086 34.5925 48.1221 34.5925H49.5032V36.8483H48.1221C47.7086 36.8483 47.3735 37.1834 47.3735 37.5969C47.3735 38.0103 47.7086 38.3454 48.1221 38.3454H49.5032V40.6011H48.1221C47.7086 40.6011 47.3735 40.9362 47.3735 41.3497C47.3735 41.7631 47.7086 42.0982 48.1221 42.0982H49.5032V44.354H48.1221C47.7086 44.354 47.3735 44.6892 47.3735 45.1026C47.3735 45.516 47.7086 45.8511 48.1221 45.8511H49.5032V49.4213H26.573L34.1342 41.8603C34.4266 41.5678 34.4266 41.094 34.1342 40.8016C34.1006 40.768 34.0646 40.739 34.0268 40.7131C33.7354 40.5134 33.3343 40.5428 33.0755 40.8016L30.0417 43.8353H5.67057C3.40027 43.8353 1.57264 42.0629 1.50072 39.7966C1.505 39.6544 1.51606 39.5134 1.53379 39.3739C1.53389 39.3731 1.53399 39.3723 1.53409 39.3715C1.54245 39.3053 1.55251 39.2393 1.56397 39.1738C1.56526 39.1663 1.56666 39.1588 1.56795 39.1514C1.57841 39.0929 1.59017 39.0347 1.60302 38.9768C1.6066 38.9606 1.61039 38.9445 1.61417 38.9284C1.62553 38.8794 1.63778 38.8307 1.65093 38.7822C1.6581 38.7559 1.66557 38.7299 1.67324 38.7037C1.6842 38.6657 1.69555 38.6277 1.70761 38.5902C1.71966 38.5526 1.73251 38.5155 1.74556 38.4783C1.75462 38.4523 1.76359 38.4263 1.77335 38.4005C1.79158 38.3515 1.8109 38.303 1.83082 38.2549C1.8365 38.241 1.84208 38.227 1.84796 38.2132C1.87356 38.1534 1.90015 38.0943 1.92824 38.0359C1.92944 38.0335 1.93053 38.031 1.93173 38.0285C2.51723 36.8168 3.64332 35.9135 4.99472 35.6332C4.99851 35.6324 5.00229 35.6315 5.00608 35.6307C5.06804 35.618 5.13059 35.6072 5.19354 35.5971C5.204 35.5954 5.21446 35.5933 5.22512 35.5917C5.282 35.5831 5.33947 35.5763 5.39695 35.5698C5.41308 35.568 5.42912 35.5655 5.44536 35.5639C5.50084 35.5584 5.55682 35.5547 5.6128 35.5512C5.63053 35.5501 5.64826 35.5482 5.66599 35.5473C5.7393 35.5436 5.81321 35.5417 5.88742 35.5417C6.3008 35.5417 6.63599 35.2066 6.63599 34.7932V29.3655C6.63599 28.9521 6.3008 28.617 5.88742 28.617C5.47404 28.617 5.13886 28.9521 5.13886 29.3655V34.0917C3.87481 34.2516 2.70151 34.8154 1.77634 35.7188C1.67902 35.8139 1.58678 35.9127 1.49693 36.0131V8.13823C1.49693 5.97262 3.07335 4.16799 5.13876 3.81159V11.1533V26.3714V26.3715C5.13876 26.7848 5.47394 27.12 5.88732 27.12C6.3007 27.12 6.63589 26.7848 6.63589 26.3715V26.3714V11.9019H28.3747L24.2365 16.0401C23.9442 16.3325 23.9442 16.8064 24.2365 17.0987C24.5289 17.391 25.0028 17.391 25.2951 17.0987L30.7111 11.6826C30.7113 11.6824 30.7114 11.6822 30.7116 11.6821L35.6109 6.78285L39.0477 10.2199L38.6445 10.6231C38.6442 10.6234 38.6438 10.6237 38.6435 10.624L23.5499 25.7178L20.113 22.2809L23.0881 19.3058C23.3805 19.0133 23.3805 18.5395 23.0881 18.2471C22.7958 17.9549 22.3218 17.9549 22.0296 18.2471L18.525 21.7516C18.5063 21.7703 18.4887 21.7901 18.4723 21.8104C18.4668 21.8172 18.4619 21.8245 18.4568 21.8316C18.4462 21.8456 18.4358 21.8598 18.4262 21.8745C18.4207 21.8831 18.4157 21.8918 18.4105 21.9007C18.4023 21.9146 18.3943 21.9288 18.387 21.9432C18.3822 21.9526 18.378 21.962 18.3736 21.9718C18.3669 21.9865 18.3607 22.0014 18.3551 22.0163C18.3531 22.0216 18.3505 22.0266 18.3486 22.0319L16.8902 26.1632L15.8959 28.98C15.8827 29.0175 15.8733 29.0555 15.8662 29.0939H13.3768C12.9634 29.0939 12.6282 29.429 12.6282 29.8425C12.6282 30.2559 12.9634 30.591 13.3768 30.591H34.1069C34.5204 30.591 34.8555 30.2559 34.8555 29.8425C34.8555 29.429 34.5204 29.0939 34.1069 29.0939H19.2339L23.799 27.4824C23.8028 27.481 23.8064 27.4791 23.8102 27.4777C23.8279 27.4712 23.8453 27.4638 23.8626 27.4559C23.8694 27.4527 23.8763 27.4497 23.883 27.4465C23.9009 27.4375 23.9186 27.4276 23.9359 27.4171C23.9415 27.4137 23.9472 27.4106 23.9527 27.4071C23.9707 27.3956 23.9883 27.3829 24.0055 27.3696C24.0098 27.3663 24.0143 27.3634 24.0185 27.36C24.0393 27.3433 24.0597 27.3252 24.079 27.3059L39.483 11.902H45.9831V27.8939L35.2754 38.6016C34.9831 38.8941 34.9831 39.3679 35.2754 39.6603C35.2937 39.6785 35.3127 39.6956 35.3323 39.7117C35.4696 39.8235 35.6372 39.8795 35.8048 39.8795C35.9723 39.8795 36.14 39.8235 36.2772 39.7117C36.2968 39.6957 36.3159 39.6785 36.3341 39.6603C36.3344 39.66 36.3341 39.6603 36.3344 39.66L49.5032 26.4911V33.0954ZM22.1808 26.4658L20.0366 27.2227L18.608 25.7941L19.3649 23.6499L22.1808 26.4658Z" fill="white"/>
</g>
<defs>
<clipPath id="clip0">
<rect width="51" height="51" fill="white"/>
</clipPath>
</defs>
</svg>
