<svg width="27" height="29" viewBox="0 0 27 29" fill="none" xmlns="http://www.w3.org/2000/svg">
<path d="M13.4998 0C11.1575 0 9.7555 0.356923 8.86431 0.801961C8.41816 1.02504 8.10139 1.25927 7.88835 1.49908C7.6742 1.73888 7.53923 2.09135 7.53923 2.09135C7.50426 2.18093 7.48101 2.27465 7.47008 2.37019L6.8767 10.0039C6.86889 10.0507 6.8845 10.1266 6.8767 10.1779L6.80754 10.9453C6.80105 11.0146 6.80105 11.0845 6.80754 11.1538C6.80754 14.8346 9.81908 17.8462 13.4998 17.8462C17.1806 17.8462 20.1922 14.8346 20.1922 11.1538V10.9798C20.1923 10.9683 20.1923 10.9568 20.1922 10.9453L19.5296 2.37019C19.5187 2.27465 19.4954 2.18093 19.4605 2.09135C19.4605 2.09135 19.3255 1.73888 19.1113 1.49908C18.8983 1.25815 18.5815 1.02392 18.1354 0.801961C17.2442 0.355808 15.8422 0 13.4998 0ZM13.4998 17.8462C6.13831 17.8462 0.115234 21.3105 0.115234 24.4336V29H26.8845V24.4336C26.8845 21.4667 21.4392 18.1986 14.5807 17.8807C14.2209 17.857 13.8604 17.8455 13.4998 17.8462ZM13.4998 2.23077C15.6191 2.23077 16.6776 2.56538 17.1248 2.78846C17.2743 2.86319 17.2922 2.89219 17.3345 2.92788L17.7874 8.64423C16.7612 8.70669 15.3625 8.92308 13.4998 8.92308C11.6372 8.92308 10.2396 8.70669 9.21231 8.64423L9.66516 2.92788C9.70643 2.89219 9.72539 2.86319 9.87485 2.78846C10.3221 2.56538 11.3806 2.23077 13.4998 2.23077ZM12.593 3.34615V4.67123H11.2691V6.48373H12.5942V7.80769H14.4055V6.48261H15.7306V4.67123H14.4055V3.34615H12.5942H12.593ZM10.1537 20.3558L13.0124 26.7692H2.346V24.4336C2.346 23.6027 5.19023 21.1689 10.1537 20.3558ZM16.846 20.3558C21.8095 21.17 24.6537 23.6027 24.6537 24.4336V26.7692H13.9873L16.846 20.3558Z" fill="white"/>
</svg>
