<svg width="24" height="24" viewBox="0 0 24 24" fill="none" xmlns="http://www.w3.org/2000/svg">
<path d="M22.3975 7.57259L12.3351 0.418257C12.0914 0.245071 11.7994 0.151978 11.4999 0.151978C11.2005 0.151978 10.9085 0.245071 10.6647 0.418257L0.602306 7.57259C0.291971 7.79307 0.0823393 8.12724 0.0195267 8.50157C-0.0432859 8.87591 0.0458661 9.25975 0.26737 9.56865C0.488874 9.87755 0.824586 10.0862 1.20065 10.1487C1.57672 10.2113 1.96234 10.1225 2.27267 9.90204L2.87498 9.47421V21.6151C2.87498 21.9946 3.02643 22.3586 3.29601 22.6269C3.56559 22.8952 3.93122 23.046 4.31247 23.046H18.6874C19.0686 23.046 19.4343 22.8952 19.7038 22.6269C19.9734 22.3586 20.1249 21.9946 20.1249 21.6151V9.47421C20.5124 9.85932 21.0186 10.1037 21.5624 10.1682C21.8671 10.1685 22.1641 10.0725 22.4104 9.89384C22.6567 9.71522 22.8397 9.46329 22.9328 9.17445C23.0259 8.8856 23.0243 8.57477 22.9284 8.28685C22.8324 7.99892 22.6471 7.7488 22.399 7.57259H22.3975ZM17.2499 20.1843H14.3749V15.8917C14.3749 15.1327 14.072 14.4048 13.5328 13.8681C12.9937 13.3314 12.2624 13.0299 11.4999 13.0299C10.7374 13.0299 10.0062 13.3314 9.46701 13.8681C8.92784 14.4048 8.62494 15.1327 8.62494 15.8917V20.1843H5.74996V7.4295L11.4999 3.34152L17.2499 7.4295V20.1843Z" fill="#E2E2E2"/>
</svg>
