<svg width="69" height="68" viewBox="0 0 69 68" fill="none" xmlns="http://www.w3.org/2000/svg">
<path d="M62.2275 40.7176C61.6776 39.3577 60.1293 38.7004 58.7692 39.2505C57.4091 39.8003 56.7522 41.3486 57.302 42.7087L60.4305 50.4473L51.139 46.3514C50.4665 46.055 49.7011 46.0503 49.025 46.3388C45.8497 47.6936 42.4481 48.3805 38.9147 48.3805C24.6939 48.3805 15.1409 37.2461 15.1409 26.8466C15.1409 14.9727 25.8058 5.31257 38.9147 5.31257C52.0236 5.31257 62.6885 14.9727 62.6885 26.8466C62.6885 27.7729 62.6021 28.8822 62.4519 29.8897C62.2354 31.3407 63.2362 32.6924 64.6872 32.9089C66.1383 33.1259 67.49 32.1246 67.7063 30.6736C67.8964 29.3999 68.001 28.0407 68.001 26.8466C68.001 19.6308 64.9455 12.8601 59.3969 7.78199C53.9141 2.76373 46.64 0 38.9147 0C31.1894 0 23.9154 2.76373 18.4325 7.78186C13.4742 12.3199 10.5088 18.2099 9.93354 24.561C3.69697 28.691 8.85621e-05 35.309 8.85621e-05 42.4375C8.85621e-05 46.8905 1.40301 51.1156 4.0735 54.7516L0.193732 64.3491C-0.211485 65.3513 0.0311671 66.4992 0.807467 67.2517C1.31336 67.7423 1.97995 68.0011 2.65691 68.0011C3.01856 68.0009 3.38327 67.9272 3.72779 67.7753L14.9146 62.8439C17.7287 63.8914 20.7033 64.4217 23.7737 64.4217C23.8401 64.4217 23.9053 64.4165 23.9706 64.4118C28.4115 64.3782 32.7289 63.2101 36.4681 61.0241C39.8174 59.0659 42.5725 56.3758 44.504 53.199C46.3899 52.8604 48.2331 52.3488 50.0221 51.6649L64.2732 57.947C64.6179 58.0988 64.9824 58.1728 65.3441 58.1728C66.021 58.1727 66.6878 57.914 67.1936 57.4235C67.9699 56.6709 68.2126 55.5232 67.8074 54.5208L62.2275 40.7176ZM23.774 59.1024C23.7377 59.1024 23.7024 59.1064 23.6664 59.1078C20.9541 59.094 18.3435 58.5609 15.9054 57.5207C15.2295 57.2321 14.4641 57.2367 13.7915 57.5333L7.5709 60.2754L9.5776 55.3115C9.94855 54.3938 9.77841 53.3459 9.13639 52.5928C6.63483 49.658 5.31266 46.1465 5.31266 42.4375C5.31266 38.1926 7.09835 34.1706 10.2227 31.1209C11.1954 36.4235 13.94 41.496 18.0802 45.4807C23.2322 50.439 30.0469 53.3115 37.4055 53.6574C33.9508 57.0581 29.0069 59.1024 23.774 59.1024Z" fill="#E0E0E0"/>
<path d="M38.7823 29.6177C40.2493 29.6177 41.4385 28.4285 41.4385 26.9615C41.4385 25.4944 40.2493 24.3052 38.7823 24.3052C37.3152 24.3052 36.126 25.4944 36.126 26.9615C36.126 28.4285 37.3152 29.6177 38.7823 29.6177Z" fill="#E0E0E0"/>
<path d="M49.4073 29.6177C50.8743 29.6177 52.0635 28.4285 52.0635 26.9615C52.0635 25.4944 50.8743 24.3052 49.4073 24.3052C47.9402 24.3052 46.751 25.4944 46.751 26.9615C46.751 28.4285 47.9402 29.6177 49.4073 29.6177Z" fill="#E0E0E0"/>
<path d="M28.1573 29.6177C29.6243 29.6177 30.8135 28.4285 30.8135 26.9615C30.8135 25.4944 29.6243 24.3052 28.1573 24.3052C26.6902 24.3052 25.501 25.4944 25.501 26.9615C25.501 28.4285 26.6902 29.6177 28.1573 29.6177Z" fill="#E0E0E0"/>
</svg>
